<svg id="Capa_1" style="fill: #e69c58;new 0 0 512 512" height="512" viewBox="0 0 512 512" width="512" xmlns="http://www.w3.org/2000/svg"><g><path d="m511.97 450.021c-.516-16.479-7.887-32.187-20.23-43.112l-170.304-154.195 43.227-47.761c25.8 6.342 54.369-.35 74.863-20.845 14.573-14.573 30.12-41.677 38.687-67.442 11.564-34.786 9.469-61.38-6.06-76.907-15.526-15.529-42.121-17.625-76.907-6.06-25.766 8.566-52.869 24.113-67.442 38.687-20.085 20.083-27.331 48.5-20.841 74.881l-50.986 46.179-49.955-45.229c6.959-25.199.574-53.343-19.194-73.111-6.703-6.703-63.715-63.716-70.71-70.711-5.858-5.858-15.355-5.858-21.213 0-5.858 5.857-5.858 15.355 0 21.213l40.305 40.306-24.042 24.042-40.307-40.307c-5.857-5.859-15.354-5.857-21.213 0-5.858 5.857-5.858 15.355 0 21.213l40.305 40.305-24.042 24.042-40.304-40.305c-5.857-5.857-15.355-5.857-21.213 0s-5.858 15.355 0 21.213c1.163 1.163 62.506 62.507 70.71 70.711 19.271 19.271 47.15 26.364 73.111 19.194l42.29 46.708-170.245 154.179c-12.342 10.925-19.714 26.633-20.23 43.112-1.058 33.831 26.123 61.979 60.094 61.979 16.692 0 33.329-7.113 44.965-20.257l150.885-166.705 150.932 166.7c11.062 12.497 27.41 20.262 44.97 20.262 34.058-.003 61.149-28.229 60.094-61.979zm-162.954-356.422c16.64-16.638 58.417-37.167 85.944-37.167 7.335 0 12.946 1.507 15.979 4.54 6.462 6.462 5.992 24.608-1.195 46.229-7.114 21.4-20.04 44.302-31.432 55.694-14.587 14.587-35.806 17.879-53.288 10.693-.025-.008-.049-.02-.073-.028-32.337-13.353-40.593-55.304-15.935-79.961zm-28.616 81.973c4.453 5.927 9.712 11.264 15.955 15.952l-37.158 41.056-20.873-18.899zm-224.083-9.957-9.193-9.193c30.196-30.196-14.009 14.009 69.297-69.296l9.192 9.192c13.615 13.616 16.6 33.601 9.362 49.988-4.321 9.233-7.811 12.099-15.019 19.309-17.545 17.545-46.094 17.545-63.639 0zm-13.528 306.06c-19.897 21.706-53.627 6.582-52.774-20.716.26-8.296 3.615-15.661 10.313-21.751l170.312-154.24 25.099 27.722zm390.395 1.509c-12.441 12.439-32.486 11.511-43.845-1.366-.088-.101 4.405 4.864-253.588-280.081 3.94-3.243 12.24-11.436 15.984-15.985 314.983 285.194 182.136 164.908 279.938 253.457 14.137 12.983 12.948 32.535 1.511 43.975z"/></g></svg>