<?xml version="1.0" encoding="iso-8859-1"?>
<!-- Generator: Adobe Illustrator 18.1.1, SVG Export Plug-In . SVG Version: 6.00 Build 0)  -->
<svg version="1.1" id="Capa_1" xmlns="http://www.w3.org/2000/svg" xmlns:xlink="http://www.w3.org/1999/xlink" x="0px" y="0px"
	 viewBox="0 0 13.469 13.469" style="background:#e69c58;new 0 0 13.469 13.469;" xml:space="preserve">
<g>
	<g>
		<path style="fill:#e69c58;" d="M12.312,0H1.159C0.52,0,0,0.52,0,1.158v11.153c0,0.639,0.52,1.158,1.159,1.158h11.153
			c0.638,0,1.157-0.52,1.157-1.158V1.158C13.469,0.52,12.95,0,12.312,0z M12.477,12.311c0,0.091-0.074,0.165-0.165,0.165H1.159
			c-0.091,0-0.166-0.074-0.166-0.165V1.158c0-0.091,0.075-0.165,0.166-0.165h11.153c0.091,0,0.165,0.074,0.165,0.165V12.311z"/>
		<polygon style="fill:#efefef" points="4.297,4.393 7.734,4.393 7.734,4.417 4.643,10.447 6.5,10.447 9.59,4.059 9.59,2.952 
			4.297,2.952 		"/>
	</g>
</g>
<g>
</g>
<g>
</g>
<g>
</g>
<g>
</g>
<g>
</g>
<g>
</g>
<g>
</g>
<g>
</g>
<g>
</g>
<g>
</g>
<g>
</g>
<g>
</g>
<g>
</g>
<g>
</g>
<g>
</g>
</svg>
